HIERARCHY
ROOT Hips
{
	OFFSET -0.001795 -0.223333 0.028219
	CHANNELS 6 Xposition Yposition Zposition Zrotation Yrotation Xrotation 
	JOINT LeftUpLeg
	{
		OFFSET 0.069520 -0.091406 -0.006815
		CHANNELS 3 Zrotation Yrotation Xrotation
		JOINT LeftLeg
		{
			OFFSET 0.034277 -0.375199 -0.004496
			CHANNELS 3 Zrotation Yrotation Xrotation
			JOINT LeftFoot
			{
				OFFSET -0.013596 -0.397961 -0.043693
				CHANNELS 3 Zrotation Yrotation Xrotation
				JOINT LeftToe
				{
					OFFSET 0.026358 -0.055791 0.119288
					CHANNELS 3 Zrotation Yrotation Xrotation
					End Site
					{
						OFFSET 0.000000 0.000000 0.000000
					}
				}
			}
		}
	}
	JOINT RightUpLeg
	{
		OFFSET -0.067670 -0.090522 -0.004320
		CHANNELS 3 Zrotation Yrotation Xrotation
		JOINT RightLeg
		{
			OFFSET -0.038290 -0.382569 -0.008850
			CHANNELS 3 Zrotation Yrotation Xrotation
			JOINT RightFoot
			{
				OFFSET 0.015774 -0.398415 -0.042312
				CHANNELS 3 Zrotation Yrotation Xrotation
				JOINT RightToe
				{
					OFFSET -0.025372 -0.048144 0.123348
					CHANNELS 3 Zrotation Yrotation Xrotation
					End Site
					{
						OFFSET 0.000000 0.000000 0.000000
					}
				}
			}
		}
	}
	JOINT Spine
	{
		OFFSET -0.002533 0.108963 -0.026696
		CHANNELS 3 Zrotation Yrotation Xrotation
		JOINT Spine1
		{
			OFFSET 0.005487 0.135180 0.001092
			CHANNELS 3 Zrotation Yrotation Xrotation
			JOINT Spine2
			{
				OFFSET 0.001457 0.052922 0.025425
				CHANNELS 3 Zrotation Yrotation Xrotation
				JOINT Neck
				{
					OFFSET -0.002778 0.213870 -0.042857
					CHANNELS 3 Zrotation Yrotation Xrotation
					JOINT Head
					{
						OFFSET 0.005152 0.064970 0.051349
						CHANNELS 3 Zrotation Yrotation Xrotation
						End Site
						{
							OFFSET 0.000000 0.000000 0.000000
						}
					}
				}
				JOINT LeftShoulder
				{
					OFFSET 0.078845 0.121749 -0.034090
					CHANNELS 3 Zrotation Yrotation Xrotation
					JOINT LeftArm
					{
						OFFSET 0.090977 0.030469 -0.008868
						CHANNELS 3 Zrotation Yrotation Xrotation
						JOINT LeftForeArm
						{
							OFFSET 0.259612 -0.012772 -0.027456
							CHANNELS 3 Zrotation Yrotation Xrotation
							JOINT LeftHand
							{
								OFFSET 0.249234 0.008986 -0.001171
								CHANNELS 3 Zrotation Yrotation Xrotation
								End Site
								{
									OFFSET 0.000000 0.000000 0.000000
								}
							}
						}
					}
				}
				JOINT RightShoulder
				{
					OFFSET -0.081759 0.118833 -0.038615
					CHANNELS 3 Zrotation Yrotation Xrotation
					JOINT RightArm
					{
						OFFSET -0.096012 0.032551 -0.009143
						CHANNELS 3 Zrotation Yrotation Xrotation
						JOINT RightForeArm
						{
							OFFSET -0.253742 -0.013329 -0.021401
							CHANNELS 3 Zrotation Yrotation Xrotation
							JOINT RightHand
							{
								OFFSET -0.255298 0.007772 -0.005559
								CHANNELS 3 Zrotation Yrotation Xrotation
								End Site
								{
									OFFSET 0.000000 0.000000 0.000000
								}
							}
						}
					}
				}
			}
		}
	}
}
MOTION
Frames: 16
Frame Time: 0.050000
0.000000 0.973709 0.000000 -0.598698 24.376839 -0.034626 7.581069 -0.675443 6.555123 -5.092719 0.111709 -5.566894 3.845900 12.467633 11.902117 0.000000 0.000000 0.000000 -2.349230 -0.111340 0.246941 0.256094 -0.047736 0.346113 -2.085392 -6.743770 26.683586 0.000000 0.000000 0.000000 0.871094 -0.317151 5.675687 8.744059 -1.524833 -19.221422 -0.282969 -14.583911 25.783546 -8.810186 6.561456 -26.385402 0.000000 0.000000 0.000000 -17.081767 -25.394948 11.917907 -78.528946 -47.096435 25.581958 -39.423915 -84.683124 44.389530 0.000000 0.000000 0.000000 15.838288 22.046215 10.724321 60.820110 25.516495 5.208823 -24.686987 25.407922 -3.543903 0.000000 0.000000 0.000000 
-0.000785 0.973189 0.000564 -1.040321 24.647061 0.323227 7.642767 -0.686493 6.054864 -4.368496 0.091187 -6.193582 4.014010 12.927933 12.538628 0.000000 0.000000 0.000000 -3.028784 -0.099453 -0.141236 1.908771 -0.323973 -0.320440 -1.342392 -5.802381 28.071465 0.000000 0.000000 0.000000 2.252564 -0.412130 5.678541 7.121751 -0.936555 -20.169187 0.569702 -16.176488 28.013463 -9.494296 6.742872 -27.475995 0.000000 0.000000 0.000000 -19.706411 -26.071981 13.220588 -77.569711 -47.849892 25.653383 -46.472081 -84.254534 51.532519 0.000000 0.000000 0.000000 15.645558 20.944593 9.928554 63.501213 26.739177 6.044797 -28.670303 24.872174 -4.069629 0.000000 0.000000 0.000000 
-0.001457 0.972231 0.001045 -0.722726 22.887063 0.634081 6.990857 -0.518691 5.089909 -3.684458 0.159889 -4.625422 4.568926 13.776815 13.037584 0.000000 0.000000 0.000000 -3.272727 -0.058838 -0.553920 1.916384 -0.313875 -0.112562 -1.041170 -5.535252 26.699133 0.000000 0.000000 0.000000 2.579458 -0.413001 5.474543 8.979720 -1.682363 -18.621600 -0.901153 -13.294830 26.518149 -9.979135 7.377260 -25.076883 0.000000 0.000000 0.000000 -20.122035 -26.344063 12.999514 -78.429088 -47.220642 25.557760 -40.123501 -83.225464 43.956321 0.000000 0.000000 0.000000 16.509226 20.459238 10.127637 62.116822 26.712606 6.052370 -28.251712 26.422071 -4.290237 0.000000 0.000000 0.000000 
-0.001976 0.972464 0.001610 -0.811663 22.998253 0.301880 6.889532 -0.525456 6.077868 -3.518263 0.129718 -6.028440 4.870744 14.370792 13.780259 0.000000 0.000000 0.000000 -3.618518 -0.117716 -0.051954 2.628996 -0.432069 -0.382467 -0.726554 -5.126686 26.961278 0.000000 0.000000 0.000000 2.587779 -0.413580 5.491504 9.522726 -1.889101 -18.409586 -0.573957 -13.782499 27.214769 -11.078148 8.001729 -24.776130 0.000000 0.000000 0.000000 -20.832775 -27.555963 13.949544 -80.465678 -47.699342 27.131308 -28.329630 -83.019762 33.315696 0.000000 0.000000 0.000000 16.073686 21.684334 10.570382 61.839355 27.468888 6.383429 -30.272145 25.000120 -4.393420 0.000000 0.000000 0.000000 
-0.002455 0.972323 0.002086 -0.403760 22.787836 0.304382 6.374821 -0.450007 6.370352 -2.816247 0.129975 -6.319229 4.254779 13.721464 14.339614 0.000000 0.000000 0.000000 -3.704754 -0.109091 -0.202859 2.006315 -0.327070 0.078024 -0.556624 -4.899544 26.917952 0.000000 0.000000 0.000000 2.770001 -0.438325 5.677653 9.690896 -2.005137 -17.836691 -0.950439 -13.514979 26.558873 -11.591434 8.299690 -24.519344 0.000000 0.000000 0.000000 -20.007851 -27.308656 13.583407 -81.647640 -47.992184 28.124581 -27.954361 -83.004736 32.789263 0.000000 0.000000 0.000000 16.056499 21.672204 10.553836 61.418912 26.986740 6.115241 -30.647534 25.224447 -4.539184 0.000000 0.000000 0.000000 
-0.002989 0.972548 0.002507 -0.513457 22.083152 0.209881 6.365527 -0.440877 6.992285 -2.696658 0.127027 -6.981226 4.537137 14.106665 14.597263 0.000000 0.000000 0.000000 -3.740263 -0.083415 -0.465241 2.417874 -0.388218 0.564002 -0.509480 -4.936660 26.585452 0.000000 0.000000 0.000000 3.029659 -0.477678 5.939092 9.684226 -2.001927 -17.992623 -0.779512 -13.650550 26.935243 -12.263255 8.686894 -23.999984 0.000000 0.000000 0.000000 -20.470644 -27.630333 14.056340 -82.306475 -49.140180 29.633057 -15.088747 -82.363328 21.279826 0.000000 0.000000 0.000000 16.122968 22.287464 10.744873 60.778455 26.602651 5.724578 -30.436153 26.522174 -4.859612 0.000000 0.000000 0.000000 
-0.003732 0.972163 0.002723 -0.337860 21.722580 0.248967 6.204465 -0.405927 6.955637 -2.799043 0.129522 -7.068173 4.945955 14.766912 15.192873 0.000000 0.000000 0.000000 -3.694580 -0.075071 -0.504262 2.334134 -0.371607 0.621505 -0.895574 -5.519974 26.150504 0.000000 0.000000 0.000000 3.092373 -0.506127 6.223969 9.563588 -1.952768 -18.138876 -0.931539 -13.624285 27.013963 -12.410737 8.752167 -24.005703 0.000000 0.000000 0.000000 -20.436370 -27.826196 14.214998 -82.606575 -49.392082 30.085895 -10.009160 -82.519649 16.908982 0.000000 0.000000 0.000000 16.550288 22.454815 10.864681 60.103546 26.291207 5.413949 -30.739671 26.890888 -5.030711 0.000000 0.000000 0.000000 
-0.004544 0.972022 0.002832 -0.437692 20.861552 0.339752 6.375515 -0.403358 6.798486 -2.939398 0.138761 -7.147466 5.431318 15.538675 16.077917 0.000000 0.000000 0.000000 -3.566444 -0.025227 -0.951230 2.411467 -0.377310 1.026080 -0.742377 -5.400816 25.658826 0.000000 0.000000 0.000000 3.325556 -0.534261 6.344065 9.524847 -1.995081 -17.774151 -0.886176 -13.327446 26.768644 -12.543148 8.844622 -23.389002 0.000000 0.000000 0.000000 -21.027410 -27.788441 14.440209 -81.691367 -49.272658 29.486501 -7.147320 -82.605568 14.461387 0.000000 0.000000 0.000000 16.879248 22.567621 10.892394 59.337577 25.910330 5.099395 -31.024871 27.378709 -5.258545 0.000000 0.000000 0.000000 
-0.005319 0.971855 0.002973 -0.311212 20.386916 0.469453 6.320854 -0.381252 6.689764 -2.960624 0.147717 -7.036519 5.504207 15.654487 16.305152 0.000000 0.000000 0.000000 -3.632098 -0.008389 -1.133820 2.408793 -0.372856 1.148127 -0.667370 -5.318644 25.202537 0.000000 0.000000 0.000000 3.288576 -0.529911 6.331426 9.669851 -2.069619 -17.630959 -0.959364 -13.175995 26.676354 -12.622353 8.900568 -23.060202 0.000000 0.000000 0.000000 -21.416841 -27.745058 14.562523 -80.713062 -48.506118 28.226965 -8.494565 -83.096560 15.809752 0.000000 0.000000 0.000000 16.932525 22.650990 10.894607 58.993329 25.913278 5.054708 -31.093173 27.044368 -5.221671 0.000000 0.000000 0.000000 
-0.005910 0.971780 0.003178 -0.201482 19.971617 0.570401 6.364559 -0.374184 6.578836 -2.995620 0.156084 -6.903409 5.353160 15.502560 16.585582 0.000000 0.000000 0.000000 -3.733554 0.000051 -1.233330 2.467057 -0.378962 1.195108 -0.564105 -5.192743 24.808105 0.000000 0.000000 0.000000 3.293450 -0.519877 6.218566 9.619560 -2.085703 -17.408602 -0.835315 -12.930050 26.465451 -12.681987 8.977487 -22.547524 0.000000 0.000000 0.000000 -22.225214 -27.620445 14.704899 -79.254369 -47.355988 26.368423 -17.484807 -83.552885 23.993719 0.000000 0.000000 0.000000 16.909390 22.483034 10.783505 58.702516 25.922931 5.028839 -31.030496 26.986804 -5.211224 0.000000 0.000000 0.000000 
-0.006366 0.971769 0.003415 -0.149699 19.658939 0.582515 6.393026 -0.369079 6.587807 -3.004083 0.159990 -6.933379 5.339032 15.547810 16.971174 0.000000 0.000000 0.000000 -3.845843 -0.002280 -1.218239 2.436692 -0.371177 1.247998 -0.097897 -4.483502 24.429922 0.000000 0.000000 0.000000 3.231579 -0.518479 6.263957 9.513100 -2.056218 -17.413834 -0.713577 -12.852492 26.482659 -12.590913 8.925830 -22.365123 0.000000 0.000000 0.000000 -22.882756 -27.269322 14.704088 -78.165045 -46.077959 24.632601 -29.103943 -83.476771 34.547203 0.000000 0.000000 0.000000 16.709694 22.191174 10.565775 58.619049 26.213461 5.156671 -31.188839 27.036123 -5.261472 0.000000 0.000000 0.000000 
-0.006719 0.972008 0.003624 -0.020886 19.424677 0.626781 6.333306 -0.353828 6.507402 -2.934549 0.164721 -6.839369 5.177591 15.417006 17.368908 0.000000 0.000000 0.000000 -4.005408 -0.016278 -1.069037 2.396236 -0.362465 1.158141 0.264688 -3.884721 23.893199 0.000000 0.000000 0.000000 3.150643 -0.509764 6.239412 9.464227 -2.053993 -17.331656 -0.702830 -12.787456 26.476172 -12.577370 8.934684 -22.048447 0.000000 0.000000 0.000000 -23.611026 -26.990275 14.749773 -76.466999 -44.794849 22.656347 -42.828729 -83.408092 47.124420 0.000000 0.000000 0.000000 16.335419 22.180748 10.468687 58.653310 26.367620 5.243841 -31.516774 27.234972 -5.386714 0.000000 0.000000 0.000000 
-0.006994 0.972358 0.003760 -0.004333 19.012250 0.682124 6.284252 -0.336593 6.437442 -2.938566 0.171175 -6.771051 5.410993 15.750463 17.719293 0.000000 0.000000 0.000000 -4.062707 -0.008179 -1.138063 2.339465 -0.349617 1.211688 0.697841 -3.245744 23.638146 0.000000 0.000000 0.000000 3.182708 -0.512436 6.243105 9.488254 -2.073400 -17.311084 -0.772578 -12.625296 26.434890 -12.354928 8.795799 -21.894257 0.000000 0.000000 0.000000 -24.114624 -26.623092 14.688306 -75.089185 -43.909470 21.248452 -47.658461 -83.207077 51.452056 0.000000 0.000000 0.000000 16.207882 22.123656 10.389271 58.307866 26.578486 5.301227 -31.600329 27.181868 -5.409702 0.000000 0.000000 0.000000 
-0.007242 0.972616 0.003788 0.041649 18.726254 0.681549 6.267702 -0.326933 6.558785 -2.989793 0.174155 -6.856555 5.457189 15.812715 17.867544 0.000000 0.000000 0.000000 -4.064005 -0.010704 -1.053500 2.248254 -0.332648 1.120369 0.863676 -3.000140 23.394588 0.000000 0.000000 0.000000 3.253835 -0.530210 6.390136 9.353541 -2.025615 -17.395384 -0.728290 -12.545556 26.474594 -12.110343 8.666849 -21.496210 0.000000 0.000000 0.000000 -24.570429 -26.419117 14.715109 -73.701715 -42.801850 19.700050 -56.714847 -83.047736 59.835154 0.000000 0.000000 0.000000 15.911959 21.937339 10.217112 58.379874 26.742168 5.390129 -31.935583 27.100632 -5.463485 0.000000 0.000000 0.000000 
-0.007444 0.972957 0.003735 0.003680 18.341696 0.739217 6.262387 -0.316699 6.499515 -2.865603 0.178320 -6.876875 5.505809 15.924767 18.264573 0.000000 0.000000 0.000000 -4.082106 -0.003387 -1.091048 2.346102 -0.346142 0.975083 1.033797 -2.811332 23.390341 0.000000 0.000000 0.000000 3.273531 -0.537878 6.457406 9.393531 -2.043678 -17.432499 -0.713251 -12.437776 26.454115 -11.975196 8.565936 -21.486605 0.000000 0.000000 0.000000 -24.865410 -26.110014 14.647168 -72.888932 -42.177617 18.839046 -60.101514 -82.729240 62.784340 0.000000 0.000000 0.000000 15.789559 21.864212 10.125591 58.392150 26.876961 5.461339 -31.910160 26.732858 -5.378474 0.000000 0.000000 0.000000 
-0.007639 0.973142 0.003617 -0.006018 18.126105 0.843840 6.266303 -0.312915 6.491400 -2.774981 0.177905 -7.060812 5.439797 15.877533 18.524670 0.000000 0.000000 0.000000 -4.119386 0.010438 -1.251561 2.379229 -0.349413 0.986622 1.217777 -2.571143 23.413836 0.000000 0.000000 0.000000 3.287363 -0.543378 6.495261 9.398633 -2.054644 -17.389292 -0.724648 -12.383256 26.238886 -11.687727 8.393000 -21.164506 0.000000 0.000000 0.000000 -25.262947 -26.005113 14.713649 -72.450374 -41.262024 17.942351 -66.511392 -82.235474 68.460883 0.000000 0.000000 0.000000 15.719620 21.864925 10.087463 58.897671 26.940111 5.606456 -31.720270 26.153945 -5.200593 0.000000 0.000000 0.000000 
